<svg width="30" height="30" viewBox="0 0 30 30" fill="none" xmlns="http://www.w3.org/2000/svg">
<g clip-path="url(#clip0_62_4)">
<path d="M20.0713 28H9.9252C9.07355 27.9983 8.23726 27.7839 7.49968 27.3781C6.7621 26.9724 6.149 26.3894 5.72151 25.6875L0.646701 17.3142C0.222962 16.6104 0 15.8131 0 15.0017C0 14.1902 0.222962 13.393 0.646701 12.6891L5.72151 4.31252C6.1486 3.61022 6.76161 3.02703 7.49928 2.62123C8.23695 2.21542 9.07345 2.00121 9.9252 2H20.0748C20.9264 2.00171 21.7627 2.21614 22.5003 2.62189C23.2379 3.02764 23.851 3.61056 24.2785 4.31252L29.3533 12.6891C29.777 13.393 30 14.1902 30 15.0017C30 15.8131 29.777 16.6104 29.3533 17.3142L24.275 25.6908C23.8479 26.3928 23.2348 26.9756 22.497 27.3809C21.7593 27.7861 20.9228 27.9996 20.0713 28ZM9.9252 4.59867C9.55194 4.59878 9.18527 4.69246 8.86201 4.8703C8.53874 5.04813 8.27025 5.30387 8.08346 5.61185L3.00691 13.9901C2.82077 14.2977 2.72278 14.6466 2.72278 15.0017C2.72278 15.3567 2.82077 15.7056 3.00691 16.0132L8.07997 24.3915C8.26729 24.699 8.53591 24.9544 8.85905 25.1321C9.1822 25.3099 9.54859 25.4039 9.9217 25.4047H20.0713C20.4445 25.4042 20.811 25.3104 21.1342 25.1326C21.4574 24.9548 21.726 24.6992 21.913 24.3915L26.9861 16.0132C27.1722 15.7056 27.2702 15.3567 27.2702 15.0017C27.2702 14.6466 27.1722 14.2977 26.9861 13.9901L21.913 5.61185C21.7257 5.30433 21.4571 5.04895 21.134 4.87118C20.8108 4.69341 20.4444 4.59945 20.0713 4.59867H9.9252ZM15 19.67C14.0313 19.6716 13.0838 19.3994 12.2775 18.8878C11.4712 18.3761 10.8422 17.6481 10.4701 16.7957C10.0981 15.9433 9.99963 15.0049 10.1873 14.0992C10.375 13.1936 10.8403 12.3613 11.5244 11.7077C12.2086 11.0541 13.0807 10.6085 14.0306 10.4274C14.9805 10.2463 15.9654 10.3377 16.8607 10.6902C17.7561 11.0426 18.5216 11.6402 19.0605 12.4074C19.5993 13.1746 19.8873 14.0768 19.888 15C19.8876 16.2364 19.3728 17.4222 18.4566 18.2976C17.5403 19.1729 16.2974 19.6664 15 19.67ZM15 12.9337C14.5711 12.9334 14.1517 13.0543 13.7949 13.2811C13.4382 13.508 13.16 13.8306 12.9956 14.2081C12.8312 14.5856 12.7881 15.0012 12.8715 15.4021C12.955 15.803 13.1613 16.1714 13.4645 16.4605C13.7677 16.7496 14.154 16.9466 14.5746 17.0265C14.9953 17.1063 15.4313 17.0655 15.8276 16.9092C16.2239 16.7528 16.5626 16.488 16.8009 16.1481C17.0392 15.8083 17.1664 15.4087 17.1664 15C17.1664 14.4523 16.9382 13.927 16.532 13.5395C16.1258 13.152 15.5747 12.9341 15 12.9337Z" fill="white" />
</g>
<defs>
<clipPath id="clip0_62_4">
<rect width="30" height="30" fill="white"/>
</clipPath>
</defs>
</svg>
